# xmcd
#
# Track frame offsets:
#	150
#	13508
#	27307
#	45963
#	65038
#	77842
#	93537
#	109973
#	128873
#	148517
#	161802
#	183050
#	196301
#	216532
#	233224
#	247072
#	265828
#	281005
#	294057
#	307475
#
# Disc length: 4302 seconds
#
# Revision: 2
# Processed by: cddbd v1.5.2PL0 Copyright (c) Steve Scherf et al.
# Submitted via: EZCDAudioConverter 2.1.7.1
#
DISCID=2d10cc14
DTITLE=V/A - Soul Sok Séga
DYEAR=2016
DGENRE=
TTITLE0=Ti L'Afrique - Soul Sock Séga
TTITLE1=Jean-Claude - Mademoiselle
TTITLE2=Georgie Joe - Eliza
TTITLE3=John Kenneth Nelson - Manuel Bitor
TTITLE4=Marie Josée and Roger Clency - La Vie En Badinage
TTITLE5=Claudio - Bonom Chinois
TTITLE6=Les Stardust - Séga Lenoir
TTITLE7=Coulouce - L'Amour Artificiel (Soul Séga)
TTITLE8=Claudio - Bhaï Aboo
TTITLE9=Christophe - Mo Parrain
TTITLE10=Cyril Labonne - Pop Soul Séga
TTITLE11=Harold Berty - Mone Lasser Dire Toi
TTITLE12=Michel Legris - Elida
TTITLE13=Catherine Velienne - Mo Mari Fini Allé
TTITLE14=Jean-Claude - Séga Souval
TTITLE15=Ramone - Nouveau Venu Dans L'Endroit
TTITLE16=John Kenneth Nelson - Z'Enfant Misère
TTITLE17=Georges Jean Louis - Afro Mauricien
TTITLE18=Yoyo - Coco Mamzelle
TTITLE19=Christian Tossé - Madame Zean
EXTD=
EXTT0=
EXTT1=
EXTT2=
EXTT3=
EXTT4=
EXTT5=
EXTT6=
EXTT7=
EXTT8=
EXTT9=
EXTT10=
EXTT11=
EXTT12=
EXTT13=
EXTT14=
EXTT15=
EXTT16=
EXTT17=
EXTT18=
EXTT19=
PLAYORDER=
